<svg version="1.1" id="Layer_1" xmlns="http://www.w3.org/2000/svg" viewBox="0 0 100 100">
<path style="fill:#ffffff;" d="M57.137,7.427v40.275l9.192-9.192c2.787-2.787,7.294-2.787,10.052,0
	c2.758,2.787,2.787,7.294,0,10.052L55.032,69.911c-2.787,2.787-7.294,2.787-10.052,0L23.63,48.562
	c-2.787-2.787-2.787-7.294,0-10.052s7.294-2.787,10.052,0l9.192,9.192V7.427c0-3.944,3.173-7.116,7.116-7.116
	s7.116,3.173,7.116,7.116H57.137z"/>
<path style="fill:#ffffff;" d="M100,100H0V68.244c0-3.338,2.699-6.045,6.027-6.045s6.027,2.707,6.027,6.045V87.91h75.891V68.244
	c0-3.338,2.699-6.045,6.027-6.045c3.328,0,6.027,2.707,6.027,6.045V100z"/>
</svg>
